<?xml version="1.0" standalone="no"?><!DOCTYPE svg PUBLIC "-//W3C//DTD SVG 1.1//EN" "http://www.w3.org/Graphics/SVG/1.1/DTD/svg11.dtd"><svg t="1578030287042" class="icon" viewBox="0 0 1024 1024" version="1.1" xmlns="http://www.w3.org/2000/svg" p-id="5742" xmlns:xlink="http://www.w3.org/1999/xlink" width="128" height="128"><defs><style type="text/css"></style></defs><path d="M512 2.159196C230.86636 2.159196 2.159196 230.86636 2.159196 512 2.159196 793.1353 230.86636 1021.840804 512 1021.840804c281.1353 0 509.840804-228.705504 509.840804-509.840804C1021.840804 230.86636 793.1353 2.159196 512 2.159196z m142.694483 451.525913L486.979216 744.49447a11.692188 11.692188 0 0 1-10.769427 6.462652v0.307034a11.393452 11.393452 0 0 1-12.004201-11.07812c2.769945-47.699812 22.773627-190.18352 22.773628-190.183521h-105.862017a11.383494 11.383494 0 0 1-12.000881-11.07812 18.604603 18.604603 0 0 1 0-3.385672c22.463274-71.703235 72.008609-208.3367 95.704998-268.960156a13.54435 13.54435 0 0 1 11.388473-7.694107h119.708422c6.769686 0 13.539371 5.231196 12.000881 11.07812-12.000882 44.621173-59.084966 167.718587-59.084966 167.718587h94.168169a11.381835 11.381835 0 0 1 11.693848 11.385154 10.166976 10.166976 0 0 1-0.00166 4.618788z" fill="#1296db" p-id="5743"></path></svg>