<?xml version="1.0" standalone="no"?><!DOCTYPE svg PUBLIC "-//W3C//DTD SVG 1.1//EN" "http://www.w3.org/Graphics/SVG/1.1/DTD/svg11.dtd"><svg t="1578030045129" class="icon" viewBox="0 0 1024 1024" version="1.1" xmlns="http://www.w3.org/2000/svg" p-id="4946" xmlns:xlink="http://www.w3.org/1999/xlink" width="128" height="128"><defs><style type="text/css"></style></defs><path d="M501.282133 22.801067c263.509333 0 477.866667 214.357333 477.866667 477.866666s-214.357333 477.866667-477.866667 477.866667-477.866667-214.357333-477.866666-477.866667 214.357333-477.866667 477.866666-477.866666z m0 887.1936a409.8048 409.8048 0 0 0 409.258667-409.326934A409.8048 409.8048 0 0 0 501.282133 91.477333a409.8048 409.8048 0 0 0-409.326933 409.258667 409.8048 409.8048 0 0 0 409.326933 409.326933zM413.2864 317.0304c19.456 0 35.362133 13.653333 35.362133 30.583467v306.107733c0 16.861867-15.837867 30.583467-35.362133 30.583467-19.592533 0-35.498667-13.653333-35.498667-30.583467V347.613867c0-16.930133 15.9744-30.583467 35.498667-30.583467z m175.991467 0c-19.592533 0-35.4304 13.653333-35.4304 30.583467v306.107733c0 16.861867 15.7696 30.583467 35.4304 30.583467 19.592533 0 35.4304-13.653333 35.4304-30.583467V347.613867c0-16.930133-15.906133-30.583467-35.498667-30.583467z" p-id="4947" fill="#1296db"></path></svg>